# xmcd CD database file
# Copyright (C) 1993-1998 Ti Kan
#
# Track frame offsets:
#  150
#  20530
#  36615
#  60282
#  84630
#  102842
#  130240
#  155887
#  176382
#  208535
#  216107
#  240902
#  258792
#  275255
#
# Disc length: 3838 seconds
#
# Revision: 1
# Processed by: cddbd v1.4b41PL1 Copyright (c) Steve Scherf et al.
# Submitted via: CDWizzard Release:4.60
#
DISCID=ba0efc0e
DTITLE=Thom Rotella - Thom Rotella Band
DYEAR=1900
DGENRE=
TTITLE0=Patti Cake
TTITLE1=Come down Easy
TTITLE2=Naima
TTITLE3=The Immigrants
TTITLE4=Song For Leah
TTITLE5=In The Wind
TTITLE6=Bring On The Night
TTITLE7=Summers End
TTITLE8=Don't Pack Your Bags
TTITLE9=Little Chubby
TTITLE10=Never Too Far Away
TTITLE11=Friends
TTITLE12=Al Mare
TTITLE13=Little Dancer
EXTD=
EXTT0=
EXTT1=
EXTT2=
EXTT3=
EXTT4=
EXTT5=
EXTT6=
EXTT7=
EXTT8=
EXTT9=
EXTT10=
EXTT11=
EXTT12=
EXTT13=
PLAYORDER=
